<svg
            xmlns="http://www.w3.org/2000/svg"
            width="26.656"
            height="20"
            viewBox="0 0 26.656 20"
        >
            <path
                id="navIcons_email"
                d="M32.66,12.62H11a2.5,2.5,0,0,0-2.5,2.5V30.116a2.5,2.5,0,0,0,2.5,2.5H32.66a2.5,2.5,0,0,0,2.5-2.5V15.124a2.5,2.5,0,0,0-2.5-2.5Zm0,2.5v2.124c-1.171.953-3.029,2.423-7.011,5.541-.872.695-2.609,2.351-3.821,2.326S18.88,23.5,18.007,22.79C14.025,19.68,12.167,18.2,11,17.248V15.124ZM11,30.116V20.423c1.2.945,2.892,2.286,5.468,4.305,1.139.889,3.126,2.868,5.363,2.859s4.192-1.939,5.363-2.859c2.577-2.019,4.273-3.352,5.468-4.305v9.693Z"
                transform="translate(-8.5 -12.62)"
                fill="#fff"
            />
        </svg>