 <svg
            xmlns="http://www.w3.org/2000/svg"
            width="19.971"
            height="20"
            viewBox="0 0 19.971 20"
        >
            <path
                id="navIcons_Landline"
                d="M28.4,23.094l-4.369-1.872a.942.942,0,0,0-1.092.268l-1.935,2.365a14.467,14.467,0,0,1-6.915-6.909l2.4-1.935a.936.936,0,0,0,.268-1.092L14.885,9.551a.942.942,0,0,0-1.1-.568l-4.057.936A.93.93,0,0,0,9,10.855a18.1,18.1,0,0,0,18.1,18.1.93.93,0,0,0,.911-.724l.936-4.057A.949.949,0,0,0,28.4,23.094Z"
                transform="translate(-8.999 -8.955)"
                fill="#fff"
            />
        </svg>