 <svg
            xmlns="http://www.w3.org/2000/svg"
            width="20.013"
            height="20"
            viewBox="0 0 20.013 20"
        >
            <path
                id="navIcons_link"
                d="M18.274,12.547a5.984,5.984,0,0,1,0,8.455h0l-2.65,2.65A5.989,5.989,0,0,1,7.154,15.2l1.465-1.465a.628.628,0,0,1,1.072.419,7.317,7.317,0,0,0,.383,2.078.618.618,0,0,1-.148.633l-.511.511A2.852,2.852,0,1,0,13.4,21.457l2.645-2.65a2.829,2.829,0,0,0,0-4.008,2.594,2.594,0,0,0-.4-.337.628.628,0,0,1-.276-.511,1.588,1.588,0,0,1,.46-1.174l.832-.827a.633.633,0,0,1,.812-.071,6.382,6.382,0,0,1,.807.679ZM23.83,6.992a6,6,0,0,0-8.471,0l-2.65,2.65h0a5.984,5.984,0,0,0,0,8.455,6.382,6.382,0,0,0,.807.679.633.633,0,0,0,.812-.071l.832-.822a1.588,1.588,0,0,0,.46-1.174.628.628,0,0,0-.276-.511,2.594,2.594,0,0,1-.4-.337,2.834,2.834,0,0,1,0-4.013L17.585,9.2a2.854,2.854,0,1,1,3.988,4.085l-.511.511a.618.618,0,0,0-.148.654A7.317,7.317,0,0,1,21.3,16.53a.628.628,0,0,0,1.072.419l1.465-1.465a6,6,0,0,0,0-8.471Z"
                transform="translate(-5.572 -5.242)"
                fill="#fff"
            />
        </svg>